<?xml version="1.0" encoding="iso-8859-1"?>
<!-- Generator: Adobe Illustrator 25.2.0, SVG Export Plug-In . SVG Version: 6.00 Build 0)  -->
<svg version="1.2" baseProfile="tiny" id="Layer_1" xmlns="http://www.w3.org/2000/svg" xmlns:xlink="http://www.w3.org/1999/xlink"
	 x="0px" y="0px" viewBox="0 0 212 212" overflow="visible" xml:space="preserve">
<g>
	<g>
		<path fill="none" d="M184.59,88.02c0.58,0.49,1.15,0.99,1.71,1.51C185.74,89.02,185.17,88.51,184.59,88.02z"/>
		<path fill="none" d="M155.93,76.42c1.91,0.13,3.8,0.37,5.64,0.71C159.72,76.79,157.84,76.55,155.93,76.42z"/>
		<path fill="none" d="M154.21,76.33c0.55,0.02,1.1,0.05,1.65,0.08C155.31,76.38,154.76,76.35,154.21,76.33z"/>
		<path fill="none" d="M142.86,77.24c0.94-0.18,1.89-0.34,2.84-0.47C144.76,76.9,143.81,77.06,142.86,77.24z"/>
		<path fill="none" d="M21.64,142.51c-0.41-0.48-0.81-0.98-1.17-1.51C20.84,141.53,21.23,142.02,21.64,142.51z"/>
		<path fill="none" d="M183.4,87.05c0.21,0.16,0.42,0.33,0.62,0.49C183.82,87.38,183.61,87.21,183.4,87.05z"/>
		<path fill="none" d="M182.04,86.01c0.17,0.13,0.34,0.25,0.51,0.38C182.38,86.26,182.21,86.13,182.04,86.01z"/>
		<path fill="none" d="M22.99,143.94c-0.34-0.33-0.67-0.67-0.98-1.02C22.33,143.28,22.65,143.62,22.99,143.94z"/>
		<path fill="none" d="M180.62,84.99c0.11,0.07,0.21,0.15,0.32,0.22C180.83,85.14,180.72,85.07,180.62,84.99z"/>
		<path fill="none" d="M164.68,77.81c0.1,0.03,0.2,0.05,0.31,0.08C164.89,77.86,164.78,77.84,164.68,77.81z"/>
		<path fill="none" d="M162.75,77.37c0.17,0.04,0.34,0.08,0.51,0.11C163.09,77.44,162.92,77.4,162.75,77.37z"/>
		<path fill="none" d="M193.94,98.52c0.17,0.26,0.35,0.52,0.52,0.79C194.29,99.04,194.12,98.78,193.94,98.52z"/>
		<path fill="none" d="M38.48,149.37l6.28-0.03l64.53-0.04l-74.61,0.05C35.76,149.41,36.89,149.37,38.48,149.37z"/>
		<path fill="none" d="M188.81,92.02c1.34,1.43,2.6,2.95,3.77,4.54C191.41,94.97,190.15,93.45,188.81,92.02z"/>
		<path fill="none" d="M187.7,90.87c0.32,0.32,0.64,0.65,0.96,0.98C188.34,91.52,188.02,91.2,187.7,90.87z"/>
		<path fill="none" d="M26.36,146.56c-0.45-0.28-0.89-0.57-1.31-0.88C25.47,145.99,25.91,146.28,26.36,146.56z"/>
		<path fill="none" d="M28.08,147.5c-0.41-0.2-0.81-0.41-1.21-0.64C27.27,147.09,27.67,147.3,28.08,147.5z"/>
		<path fill="none" d="M24.8,145.51c-0.49-0.37-0.96-0.77-1.42-1.19C23.84,144.73,24.31,145.13,24.8,145.51z"/>
		<path fill="none" d="M30.23,148.41c0.02,0.01,0.04,0.01,0.07,0.02c-0.59-0.2-1.16-0.44-1.73-0.69
			C29.11,147.98,29.67,148.21,30.23,148.41z"/>
		<path fill="none" d="M34.23,149.32c-1.31-0.16-2.59-0.45-3.82-0.86C31.98,148.99,33.1,149.23,34.23,149.32z"/>
		<path fill="none" d="M192.87,96.96c0.22,0.31,0.44,0.61,0.65,0.92C193.31,97.57,193.09,97.26,192.87,96.96z"/>
		<path fill="none" d="M115,93.32c-0.49,0.56-0.97,1.13-1.43,1.71C114.03,94.45,114.51,93.88,115,93.32z"/>
		<path fill="none" d="M112.95,95.83c-0.42,0.55-0.83,1.11-1.23,1.68C112.12,96.94,112.53,96.38,112.95,95.83z"/>
		<path fill="none" d="M111.19,98.28c-0.54,0.8-1.06,1.62-1.55,2.46C110.13,99.89,110.65,99.08,111.19,98.28z"/>
		<path fill="none" d="M119.63,88.68c-0.56,0.49-1.1,0.99-1.63,1.5C118.53,89.67,119.08,89.16,119.63,88.68z"/>
		<path fill="none" d="M109.29,149.3c-0.53-0.94-1.04-1.9-1.51-2.87C108.26,147.41,108.76,148.36,109.29,149.3z"/>
		<path fill="none" d="M186.49,89.71c0.33,0.3,0.65,0.62,0.96,0.93C187.14,90.32,186.82,90.01,186.49,89.71z"/>
		<path fill="none" d="M106.42,143.31c0.32,0.79,0.67,1.57,1.03,2.35C107.09,144.89,106.73,144.11,106.42,143.31z"/>
		<path fill="none" d="M115.47,92.77c0.65-0.72,1.32-1.42,2.01-2.1C116.79,91.35,116.12,92.05,115.47,92.77z"/>
		<path fill="none" d="M121.97,86.75c-0.54,0.42-1.07,0.85-1.6,1.29C120.9,87.6,121.43,87.17,121.97,86.75z"/>
		<path fill="none" d="M142.42,77.34c-0.48,0.1-0.95,0.2-1.43,0.31c-0.27,0.07-0.54,0.15-0.82,0.22
			C140.91,77.67,141.66,77.5,142.42,77.34z"/>
		<path fill="none" d="M136.36,78.99c-0.9,0.31-1.8,0.64-2.68,1C134.57,79.63,135.46,79.29,136.36,78.99z"/>
		<path fill="none" d="M139.16,78.13c-0.69,0.19-1.37,0.4-2.04,0.62C137.79,78.53,138.47,78.32,139.16,78.13z"/>
		<path fill="none" d="M154.16,76.33c-2.63-0.09-5.29,0.03-7.96,0.38c2.07-0.26,4.16-0.4,6.27-0.4
			C153.04,76.3,153.6,76.31,154.16,76.33z"/>
		<path fill="none" d="M132.99,80.29c-0.67,0.28-1.33,0.58-1.98,0.89C131.67,80.86,132.33,80.57,132.99,80.29z"/>
		<path fill="none" d="M125.03,84.54c-0.8,0.53-1.58,1.08-2.34,1.65C123.46,85.62,124.24,85.07,125.03,84.54z"/>
		<path fill="none" d="M127.52,83.01c-0.82,0.47-1.62,0.96-2.41,1.48C125.9,83.97,126.7,83.48,127.52,83.01z"/>
		<path fill="none" d="M130.12,81.62c-0.6,0.3-1.2,0.62-1.79,0.95C128.92,82.24,129.51,81.92,130.12,81.62z"/>
		<path fill="#3A5DA8" d="M105.99,0.02C47.92,0.02,0.77,46.71,0.01,104.59v2.84c0.75,57.44,47.19,103.85,104.64,104.56h2.68
			c57.92-0.72,104.65-47.89,104.65-105.98C211.97,47.46,164.52,0.02,105.99,0.02z M188.65,91.86c0.05,0.06,0.1,0.11,0.16,0.17
			c1.34,1.43,2.6,2.94,3.77,4.54c0.1,0.13,0.2,0.27,0.29,0.4c0.22,0.31,0.44,0.61,0.65,0.92c0.14,0.21,0.29,0.42,0.43,0.64
			c0.17,0.26,0.35,0.52,0.52,0.79c0.31,0.49,0.62,0.98,0.91,1.49c0,0,0,0,0,0c3.06,5.24,5.18,11.09,6.16,17.32
			c0.32,2.08,0.52,4.2,0.58,6.35h0c0,8.8-2.07,17.17-6.43,24.84c-8.9,15.53-25.52,25.13-43.2,25.13c-2.25,0-4.48-0.15-6.66-0.44
			c-15.29-2.06-28.62-11.13-36.52-24.68l-64.53,0.04l-6.28,0.03c-1.59,0-2.72,0.03-3.79-0.02l-0.29,0
			c-0.06-0.01-0.11-0.02-0.16-0.03c-1.13-0.1-2.25-0.33-3.82-0.86c-0.03-0.01-0.07-0.02-0.11-0.03c-0.02-0.01-0.04-0.01-0.07-0.02
			c-0.57-0.2-1.12-0.43-1.67-0.67c-0.16-0.07-0.32-0.16-0.49-0.24c-0.41-0.2-0.81-0.41-1.21-0.64c-0.17-0.1-0.35-0.2-0.52-0.3
			c-0.45-0.28-0.89-0.57-1.31-0.88c-0.08-0.06-0.16-0.11-0.24-0.17c-0.49-0.37-0.97-0.77-1.42-1.19c-0.13-0.12-0.26-0.25-0.39-0.37
			c-0.34-0.33-0.67-0.67-0.98-1.02c-0.12-0.14-0.25-0.27-0.37-0.41c-0.41-0.48-0.81-0.98-1.17-1.51c-4.5-6.51-6.15-13.17-5.69-19.23
			c0.64-13.54,11.8-24.31,25.49-24.31c0.22,0,0.45,0.01,0.66,0.01c0.03-0.56,0.05-1.13,0.1-1.68c1.63-25.38,18.65-44.15,40.83-49.02
			c28.12-6.18,51.71,12.3,59.11,30.88c0.48-0.11,0.95-0.21,1.43-0.31c0.15-0.03,0.3-0.07,0.45-0.1c0.95-0.19,1.89-0.34,2.84-0.47
			c0.17-0.02,0.34-0.04,0.51-0.07c2.67-0.34,5.33-0.46,7.96-0.38c0.01,0,0.03,0,0.04,0c0.55,0.02,1.1,0.05,1.65,0.08
			c0.03,0,0.05,0,0.08,0.01c1.9,0.13,3.79,0.37,5.64,0.71c0.39,0.07,0.78,0.15,1.17,0.23c0.17,0.04,0.34,0.07,0.51,0.11
			c0.48,0.1,0.95,0.22,1.42,0.33c0.1,0.03,0.2,0.05,0.31,0.08c5.67,1.46,10.94,3.89,15.63,7.1c0.11,0.07,0.21,0.15,0.32,0.22
			c0.37,0.26,0.74,0.52,1.1,0.79c0.17,0.13,0.34,0.25,0.51,0.38c0.29,0.22,0.57,0.44,0.85,0.66c0.21,0.16,0.42,0.33,0.62,0.49
			c0.19,0.16,0.38,0.32,0.57,0.48c0.58,0.49,1.15,0.99,1.71,1.51c0.06,0.06,0.13,0.11,0.19,0.17c0.33,0.3,0.65,0.62,0.96,0.93
			c0.08,0.08,0.16,0.16,0.24,0.24C188.02,91.2,188.34,91.52,188.65,91.86z"/>
		<path fill="#EB2436" d="M187.45,90.63c-0.32-0.31-0.64-0.62-0.96-0.93c-0.06-0.06-0.13-0.11-0.19-0.17
			c-0.56-0.52-1.13-1.02-1.71-1.51c-0.19-0.16-0.38-0.32-0.57-0.48c-0.2-0.17-0.41-0.33-0.62-0.49c-0.28-0.22-0.57-0.45-0.85-0.66
			c-0.17-0.13-0.34-0.25-0.51-0.38c-0.36-0.27-0.73-0.53-1.1-0.79c-0.11-0.07-0.21-0.15-0.32-0.22c-4.69-3.21-9.96-5.64-15.63-7.1
			c-0.1-0.03-0.2-0.05-0.31-0.08c-0.47-0.12-0.95-0.23-1.42-0.33c-0.17-0.04-0.34-0.08-0.51-0.11c-0.39-0.08-0.78-0.16-1.17-0.23
			c-1.85-0.34-3.73-0.58-5.64-0.71c-0.03,0-0.05,0-0.08-0.01c-0.55-0.04-1.1-0.06-1.65-0.08c-0.01,0-0.03,0-0.04,0
			c-0.56-0.02-1.12-0.03-1.68-0.03c-2.11,0-4.21,0.14-6.27,0.4c-0.17,0.02-0.34,0.04-0.51,0.07c-0.95,0.13-1.9,0.28-2.84,0.47
			c-0.15,0.03-0.3,0.07-0.45,0.1c-0.75,0.16-1.5,0.33-2.25,0.52c-0.34,0.09-0.68,0.17-1.01,0.27c-0.69,0.19-1.37,0.4-2.04,0.62
			c-0.25,0.08-0.5,0.15-0.75,0.24c-0.9,0.31-1.8,0.64-2.68,1c-0.23,0.09-0.46,0.2-0.69,0.3c-0.67,0.28-1.33,0.58-1.98,0.89
			c-0.3,0.14-0.6,0.29-0.89,0.44c-0.6,0.3-1.2,0.62-1.79,0.95c-0.27,0.15-0.54,0.29-0.81,0.45c-0.82,0.47-1.62,0.96-2.41,1.48
			c-0.03,0.02-0.05,0.03-0.08,0.05c-0.8,0.53-1.58,1.08-2.34,1.65c-0.24,0.18-0.48,0.37-0.72,0.55c-0.54,0.42-1.07,0.85-1.6,1.29
			c-0.25,0.21-0.5,0.42-0.74,0.64c-0.56,0.49-1.1,0.99-1.63,1.5c-0.17,0.17-0.35,0.32-0.52,0.49c-0.69,0.68-1.36,1.38-2.01,2.1
			c-0.16,0.18-0.31,0.37-0.47,0.55c-0.49,0.56-0.97,1.13-1.43,1.71c-0.21,0.26-0.41,0.52-0.61,0.79c-0.42,0.55-0.83,1.11-1.23,1.68
			c-0.18,0.26-0.36,0.51-0.54,0.77c-0.54,0.8-1.06,1.62-1.55,2.46c-0.01,0.02-0.03,0.04-0.04,0.06c28.59,0,57.18,0,85.77,0
			c-0.29-0.5-0.6-1-0.91-1.49c-0.17-0.26-0.34-0.53-0.52-0.79c-0.14-0.21-0.28-0.43-0.43-0.64c-0.21-0.31-0.43-0.62-0.65-0.92
			c-0.1-0.13-0.19-0.27-0.29-0.4c-1.17-1.59-2.42-3.1-3.77-4.54c-0.05-0.06-0.1-0.11-0.16-0.17c-0.31-0.33-0.63-0.66-0.96-0.98
			C187.62,90.79,187.54,90.71,187.45,90.63z"/>
		<path fill="#131A6D" d="M102.79,124.47h99.31c-0.06-2.16-0.26-4.28-0.58-6.35c-0.97-6.23-3.1-12.08-6.16-17.32c0,0,0,0,0,0
			c-28.59,0-57.18,0-85.77,0C105.5,107.78,103.03,115.84,102.79,124.47z"/>
		<path fill="#FFD600" d="M106.42,143.31c0.32,0.79,0.67,1.57,1.03,2.35c0.12,0.25,0.22,0.52,0.34,0.77
			c0.47,0.97,0.97,1.93,1.51,2.87h0.28h86.1c4.36-7.66,6.43-16.04,6.43-24.84h0h-99.31C102.79,130.9,104.03,137.34,106.42,143.31z"
			/>
		<path fill="#00A650" d="M109.29,149.3c7.91,13.56,21.24,22.63,36.52,24.68c2.18,0.29,4.41,0.44,6.66,0.44
			c17.67,0,34.3-9.6,43.2-25.13h-86.1H109.29z"/>
		<path fill="#FFFFFF" d="M107.45,145.66c-0.36-0.78-0.71-1.56-1.03-2.35c-2.39-5.97-3.62-12.41-3.62-18.85
			c0.24-8.63,2.71-16.69,6.8-23.68c0.01-0.02,0.03-0.04,0.04-0.06c0.49-0.84,1.02-1.65,1.55-2.46c0.17-0.26,0.36-0.51,0.54-0.77
			c0.4-0.57,0.81-1.13,1.23-1.68c0.2-0.26,0.41-0.53,0.61-0.79c0.46-0.58,0.94-1.15,1.43-1.71c0.16-0.18,0.31-0.37,0.47-0.55
			c0.65-0.72,1.32-1.42,2.01-2.1c0.17-0.17,0.35-0.33,0.52-0.49c0.53-0.51,1.08-1.02,1.63-1.5c0.25-0.22,0.5-0.43,0.74-0.64
			c0.52-0.44,1.06-0.87,1.6-1.29c0.24-0.19,0.48-0.37,0.72-0.55c0.77-0.57,1.54-1.13,2.34-1.65c0.03-0.02,0.05-0.03,0.08-0.05
			c0.79-0.52,1.59-1.01,2.41-1.48c0.27-0.15,0.54-0.3,0.81-0.45c0.59-0.33,1.19-0.64,1.79-0.95c0.3-0.15,0.59-0.3,0.89-0.44
			c0.65-0.31,1.32-0.61,1.98-0.89c0.23-0.1,0.46-0.2,0.69-0.3c0.88-0.36,1.78-0.69,2.68-1c0.25-0.08,0.5-0.16,0.75-0.24
			c0.68-0.22,1.36-0.43,2.04-0.62c0.34-0.09,0.67-0.18,1.01-0.27c0.27-0.07,0.54-0.15,0.82-0.22c-7.4-18.58-31-37.06-59.11-30.88
			c-22.18,4.87-39.2,23.64-40.83,49.02c-0.04,0.55-0.07,1.12-0.1,1.68c-0.21,0-0.44-0.01-0.66-0.01
			c-13.69,0-24.85,10.78-25.49,24.31c-0.46,6.06,1.18,12.72,5.69,19.23c0.36,0.53,0.76,1.02,1.17,1.51
			c0.12,0.14,0.24,0.28,0.37,0.41c0.32,0.35,0.65,0.69,0.98,1.02c0.13,0.12,0.25,0.25,0.39,0.37c0.46,0.42,0.93,0.82,1.42,1.19
			c0.08,0.06,0.16,0.11,0.24,0.17c0.43,0.31,0.87,0.61,1.31,0.88c0.17,0.1,0.34,0.2,0.52,0.3c0.4,0.23,0.8,0.44,1.21,0.64
			c0.16,0.08,0.32,0.16,0.49,0.24c0.57,0.26,1.14,0.49,1.73,0.69c0.03,0.01,0.07,0.02,0.11,0.03c1.24,0.42,2.52,0.7,3.82,0.86
			c0.06,0.01,0.11,0.02,0.16,0.03l0.29,0l74.61-0.05c-0.53-0.94-1.04-1.9-1.51-2.87C107.66,146.18,107.56,145.92,107.45,145.66z"/>
	</g>
</g>
</svg>
