<svg id="Layer_1" data-name="Layer 1" xmlns="http://www.w3.org/2000/svg" viewBox="0 0 233.97 37.59"><defs><style>.cls-1{fill:#4468c0;}</style></defs><title>CloudMu_Logo_Blue_Crop</title><path class="cls-1" d="M6.62,35.88a12.35,12.35,0,0,1-4.86-4.81A13.86,13.86,0,0,1,0,24.1a13.74,13.74,0,0,1,1.76-6.94,12.34,12.34,0,0,1,4.86-4.78,14.25,14.25,0,0,1,7-1.71A13.58,13.58,0,0,1,19.75,12,10.19,10.19,0,0,1,24,15.9l-2.67,1.81A8.29,8.29,0,0,0,18,14.77a9.76,9.76,0,0,0-4.37-1,10.29,10.29,0,0,0-5.16,1.28,9,9,0,0,0-3.57,3.65A11,11,0,0,0,3.62,24.1a11,11,0,0,0,1.29,5.41,9,9,0,0,0,3.57,3.62,10.29,10.29,0,0,0,5.16,1.29,10,10,0,0,0,4.37-1,8.16,8.16,0,0,0,3.32-2.92L24,32.35a10,10,0,0,1-4.28,3.9,13.61,13.61,0,0,1-6.08,1.34A14.25,14.25,0,0,1,6.62,35.88Z"/><path class="cls-1" d="M31,0h3.58V37.33H31Z"/><path class="cls-1" d="M48.76,35.85a12.75,12.75,0,0,1-4.84-4.8,13.75,13.75,0,0,1-1.76-6.95,13.74,13.74,0,0,1,1.76-6.94,12.49,12.49,0,0,1,4.84-4.78,14.74,14.74,0,0,1,13.78,0,12.28,12.28,0,0,1,4.81,4.78,13.93,13.93,0,0,1,1.73,6.94,13.94,13.94,0,0,1-1.73,7,12.53,12.53,0,0,1-4.81,4.8,14.51,14.51,0,0,1-13.78,0Zm12-2.72a8.94,8.94,0,0,0,3.49-3.64,11.31,11.31,0,0,0,1.26-5.39,11.25,11.25,0,0,0-1.26-5.38,9,9,0,0,0-3.49-3.65,10.64,10.64,0,0,0-10.12,0,9.17,9.17,0,0,0-3.52,3.65,11,11,0,0,0-1.28,5.38,11.09,11.09,0,0,0,1.28,5.39,9.14,9.14,0,0,0,3.52,3.64,10.57,10.57,0,0,0,10.12,0Z"/><path class="cls-1" d="M100.53,10.87V37.33H97.1V32.5a9.76,9.76,0,0,1-3.87,3.75,11.64,11.64,0,0,1-5.64,1.34,11.25,11.25,0,0,1-8.17-2.9c-2-1.93-3-4.75-3-8.48V10.87H80v15c0,2.79.68,4.9,2.06,6.34A7.72,7.72,0,0,0,88,34.37a8.68,8.68,0,0,0,6.59-2.54A9.87,9.87,0,0,0,97,24.76V10.87Z"/><path class="cls-1" d="M135,0V37.33H131.6V32.1a10.88,10.88,0,0,1-4.25,4.08,12.46,12.46,0,0,1-6,1.41,13.47,13.47,0,0,1-6.75-1.71,12.28,12.28,0,0,1-4.73-4.78,14.15,14.15,0,0,1-1.71-7,14.11,14.11,0,0,1,1.71-7,12.1,12.1,0,0,1,4.73-4.76,13.66,13.66,0,0,1,6.75-1.68A12.52,12.52,0,0,1,127.2,12a11.1,11.1,0,0,1,4.25,3.9V0Zm-8.33,33.13a9.1,9.1,0,0,0,3.53-3.64,11.21,11.21,0,0,0,1.28-5.39,11.14,11.14,0,0,0-1.28-5.38,9.13,9.13,0,0,0-3.53-3.65,9.82,9.82,0,0,0-5-1.28,9.94,9.94,0,0,0-5.06,1.28,9.1,9.1,0,0,0-3.52,3.65,11,11,0,0,0-1.28,5.38,11.09,11.09,0,0,0,1.28,5.39,9.08,9.08,0,0,0,3.52,3.64,10,10,0,0,0,5.06,1.29A9.83,9.83,0,0,0,126.69,33.13Z"/><path class="cls-1" d="M144.23,36.78a2.7,2.7,0,0,1-.78-2,2.64,2.64,0,0,1,.78-1.94,2.57,2.57,0,0,1,1.89-.78,2.67,2.67,0,0,1,1.91.78,2.62,2.62,0,0,1,.8,1.94,2.68,2.68,0,0,1-.8,2,2.62,2.62,0,0,1-1.91.81A2.53,2.53,0,0,1,144.23,36.78Z"/><path class="cls-1" d="M197.94,13.54c1.9,1.91,2.84,4.73,2.84,8.45V37.33h-3.57v-15q0-4.12-2-6.29a7.23,7.23,0,0,0-5.61-2.16,8.45,8.45,0,0,0-6.49,2.54,9.92,9.92,0,0,0-2.36,7V37.33h-3.57v-15c0-2.75-.67-4.85-2-6.29a7.31,7.31,0,0,0-5.66-2.16,8.48,8.48,0,0,0-6.47,2.54,9.84,9.84,0,0,0-2.39,7V37.33h-3.57V10.87h3.42V15.7A9.53,9.53,0,0,1,164.46,12a12.22,12.22,0,0,1,5.78-1.31A11.28,11.28,0,0,1,176,12.08a8.64,8.64,0,0,1,3.65,4.17,10.31,10.31,0,0,1,4.2-4.1,13,13,0,0,1,6.27-1.48A10.47,10.47,0,0,1,197.94,13.54Z"/><path class="cls-1" d="M234,10.87V37.33h-3.42V32.5a9.72,9.72,0,0,1-3.88,3.75A11.63,11.63,0,0,1,221,37.59a11.28,11.28,0,0,1-8.18-2.9c-2-1.93-3-4.75-3-8.48V10.87h3.57v15q0,4.18,2.06,6.34a7.74,7.74,0,0,0,5.89,2.17A8.68,8.68,0,0,0,228,31.83a9.88,9.88,0,0,0,2.42-7.07V10.87Z"/></svg>